<?xml version="1.0" encoding="utf-8"?>
<!-- Generator: Adobe Illustrator 21.0.0, SVG Export Plug-In . SVG Version: 6.00 Build 0)  -->
<svg version="1.1" id="Layer_1" xmlns="http://www.w3.org/2000/svg" xmlns:xlink="http://www.w3.org/1999/xlink" x="0px" y="0px"
	 viewBox="0 0 36 36" enable-background="new 0 0 36 36" xml:space="preserve">
<g>
	<path fill="#0088CC" d="M29.8,15.2c0-9.2-4.9-12.3-9.5-13V2.1c0-1.2-1-2.1-2.3-2.1s-2.2,0.9-2.2,2.1c0,0.1,0,0.1,0,0.1
		c-4.6,0.7-9.6,3.8-9.6,13C6.2,25.9,3.6,27,0,30h36C32.5,27,29.8,25.8,29.8,15.2z"/>
	<path fill="#0088CC" d="M18,36c2.5,0,4.6-1.9,4.8-4h-9.7C13.4,34.1,15.5,36,18,36z"/>
</g>
</svg>
