<?xml version="1.0" encoding="utf-8"?>
<!-- Generator: Adobe Illustrator 21.0.0, SVG Export Plug-In . SVG Version: 6.00 Build 0)  -->
<svg version="1.1" id="Layer_1" xmlns="http://www.w3.org/2000/svg" xmlns:xlink="http://www.w3.org/1999/xlink" x="0px" y="0px"
	 viewBox="0 0 36 44" enable-background="new 0 0 36 44" xml:space="preserve">
<g>
	<path fill="#0088CC" d="M21.8,36h-7.7c-0.6,0-1.1,0.5-1.1,1.1s0.5,1.1,1.1,1.1h7.7c0.6,0,1.1-0.5,1.1-1.1S22.4,36,21.8,36z"/>
	<path fill="#0088CC" d="M16,42.3c0.1,1,1,1.7,2,1.7s1.8-0.7,2-1.7c1.3-0.1,2.4-1.2,2.4-2.5h-8.7C13.6,41.1,14.7,42.2,16,42.3z"/>
	<path fill="#0088CC" d="M18,6.9c0.8,0,1.4-0.6,1.4-1.4V2.1c0-0.8-0.6-1.4-1.4-1.4s-1.4,0.6-1.4,1.4v3.3C16.6,6.2,17.2,6.9,18,6.9z"
		/>
	<path fill="#0088CC" d="M8.6,9c0.3,0.4,0.7,0.6,1.2,0.6c0.3,0,0.6-0.1,0.8-0.3c0.6-0.5,0.8-1.4,0.3-2l-2-2.7C8.4,4,7.5,3.8,6.9,4.3
		s-0.8,1.4-0.3,2L8.6,9z"/>
	<path fill="#0088CC" d="M27.4,30.1c-0.5-0.6-1.4-0.8-2-0.3s-0.8,1.4-0.3,2l2,2.7c0.3,0.4,0.7,0.6,1.2,0.6c0.3,0,0.6-0.1,0.8-0.3
		c0.6-0.5,0.8-1.4,0.3-2L27.4,30.1z"/>
	<path fill="#0088CC" d="M5.1,13.8l-3.2-1c-0.8-0.2-1.6,0.2-1.8,0.9c-0.2,0.8,0.2,1.6,0.9,1.8l3.2,1c0.1,0,0.3,0.1,0.4,0.1
		c0.6,0,1.2-0.4,1.4-1C6.2,14.9,5.8,14,5.1,13.8z"/>
	<path fill="#0088CC" d="M35,23.5l-3.2-1c-0.8-0.2-1.6,0.2-1.8,0.9c-0.2,0.8,0.2,1.6,0.9,1.8l3.2,1c0.1,0,0.3,0.1,0.4,0.1
		c0.6,0,1.2-0.4,1.4-1C36.2,24.6,35.8,23.8,35,23.5z"/>
	<path fill="#0088CC" d="M4.2,22.5l-3.2,1c-0.8,0.2-1.2,1.1-0.9,1.8c0.2,0.6,0.8,1,1.4,1c0.1,0,0.3,0,0.4-0.1l3.2-1
		c0.7-0.2,1.1-1,0.9-1.8C5.7,22.7,4.9,22.3,4.2,22.5z"/>
	<path fill="#0088CC" d="M31.4,16.6c0.1,0,0.3,0,0.4-0.1l3.2-1c0.8-0.2,1.2-1.1,0.9-1.8c-0.2-0.8-1.1-1.2-1.8-0.9l-3.2,1
		c-0.8,0.2-1.2,1.1-0.9,1.8C30.2,16.2,30.8,16.6,31.4,16.6z"/>
	<path fill="#0088CC" d="M8.6,30.1l-2,2.7c-0.5,0.6-0.3,1.5,0.3,2C7.2,35,7.5,35,7.8,35c0.4,0,0.9-0.2,1.2-0.6l2-2.7
		c0.5-0.6,0.3-1.5-0.3-2C9.9,29.3,9,29.4,8.6,30.1z"/>
	<path fill="#0088CC" d="M27.1,4.6l-2,2.7c-0.5,0.6-0.3,1.5,0.3,2c0.3,0.2,0.6,0.3,0.8,0.3c0.4,0,0.9-0.2,1.2-0.6l2-2.7
		c0.5-0.6,0.3-1.5-0.3-2C28.4,3.8,27.5,3.9,27.1,4.6z"/>
	<path fill="#0088CC" d="M28.4,19.6c0-5.7-4.6-10.4-10.4-10.4c-5.7,0-10.4,4.6-10.4,10.4c0,2.4,0.8,4.6,2.2,6.4
		c1.2,1.5,2.4,3.2,3.4,4.9v3.4h9.5V31c1-1.7,2.3-3.6,3.4-5C27.6,24.2,28.4,22,28.4,19.6z"/>
</g>
</svg>
