<?xml version="1.0" encoding="utf-8"?>
<!-- Generator: Adobe Illustrator 21.0.0, SVG Export Plug-In . SVG Version: 6.00 Build 0)  -->
<svg version="1.1" id="Livello_1" xmlns="http://www.w3.org/2000/svg" xmlns:xlink="http://www.w3.org/1999/xlink" x="0px" y="0px"
	 viewBox="0 0 37 21" enable-background="new 0 0 37 21" xml:space="preserve">
<g id="Livello_26">
	<path fill="#0088CC" d="M16,20.2c0-0.1,0.1-0.3,0.3-0.3H20c0.1,0,0.3,0.1,0.3,0.3c0,0.1-0.1,0.3-0.3,0.3h-3.8
		C16.1,20.4,16,20.3,16,20.2 M31.2,18.5H5.1V1h26.1V18.5L31.2,18.5z M36.3,20.3c0-0.4-0.3-0.7-0.7-0.7l0,0h-3.7
		c0.2-0.1,0.3-0.3,0.3-0.5V0.5C32.2,0.2,32,0,31.7,0H4.5C4.2-0.1,4,0.2,4,0.5v18.6c0,0.2,0.1,0.4,0.3,0.5H0.7l0,0
		c-0.4,0-0.7,0.3-0.7,0.7C0,20.7,0.3,21,0.7,21h34.9C36,21,36.3,20.7,36.3,20.3"/>
</g>
</svg>
