<?xml version="1.0" encoding="utf-8"?>
<!-- Generator: Adobe Illustrator 21.0.0, SVG Export Plug-In . SVG Version: 6.00 Build 0)  -->
<svg version="1.1" id="Layer_1" xmlns="http://www.w3.org/2000/svg" xmlns:xlink="http://www.w3.org/1999/xlink" x="0px" y="0px"
	 viewBox="0 0 36 36" enable-background="new 0 0 36 36" xml:space="preserve">
<g>
	<path fill="#FFFFFF" d="M18,36c9.9,0,18-8.1,18-18S27.9,0,18,0S0,8.1,0,18S8.1,36,18,36L18,36z M18,1.5c9.1,0,16.5,7.4,16.5,16.5
		S27.1,34.5,18,34.5S1.5,27.1,1.5,18S8.9,1.5,18,1.5L18,1.5z"/>
	<path fill="#FFFFFF" d="M20.1,25.5c0.2,0.2,0.4,0.3,0.6,0.3s0.5-0.1,0.6-0.3c0.4-0.4,0.4-0.9,0-1.3L15.2,18l6.2-6.2
		c0.4-0.4,0.4-0.9,0-1.3c-0.4-0.4-0.9-0.4-1.3,0l-6.8,6.8c-0.4,0.4-0.4,0.9,0,1.3L20.1,25.5z"/>
</g>
</svg>
